<?xml version="1.0" standalone="no"?>
<!DOCTYPE svg PUBLIC "-//W3C//DTD SVG 20010904//EN"
 "http://www.w3.org/TR/2001/REC-SVG-20010904/DTD/svg10.dtd">
<svg version="1.0" xmlns="http://www.w3.org/2000/svg"
 width="500.000000pt" height="500.000000pt" viewBox="0 0 500.000000 500.000000"
 preserveAspectRatio="xMidYMid meet">
<metadata>
Created by potrace 1.14, written by Peter Selinger 2001-2017
</metadata>
<g transform="translate(0.000000,500.000000) scale(0.100000,-0.100000)"
fill="#000000" stroke="none">
<path d="M0 2500 l0 -2500 2500 0 2500 0 0 2500 0 2500 -2500 0 -2500 0 0
-2500z m2240 1059 l0 -231 34 29 c109 97 292 116 445 48 106 -48 175 -145 206
-292 22 -101 22 -1250 0 -1352 -58 -278 -250 -406 -516 -345 -42 9 -89 29
-119 49 l-50 34 0 -235 0 -234 -245 0 -245 0 0 1380 0 1380 245 0 245 0 0
-231z m1106 -1992 c92 -47 147 -139 147 -247 1 -162 -116 -280 -278 -280 -163
0 -278 117 -277 280 0 128 66 220 191 267 55 20 156 11 217 -20z"/>
<path d="M2290 3042 c-49 -49 -52 -91 -47 -649 2 -280 8 -520 12 -535 13 -49
49 -78 95 -78 54 0 86 31 97 96 14 85 10 1072 -5 1121 -22 73 -100 96 -152 45z"/>
</g>
</svg>
